HIERARCHY
ROOT Hips
{
	OFFSET 0.00000 0.00000 0.00000
	CHANNELS 6 Xposition Yposition Zposition Zrotation Yrotation Xrotation 
	JOINT LHipJoint
	{
		OFFSET 0 0 0
		CHANNELS 3 Zrotation Yrotation Xrotation
		JOINT LeftUpLeg
		{
			OFFSET 1.55766 -1.60504 1.11378
			CHANNELS 3 Zrotation Yrotation Xrotation
			JOINT LeftLeg
			{
				OFFSET 2.29047 -6.29302 0.00000
				CHANNELS 3 Zrotation Yrotation Xrotation
				JOINT LeftFoot
				{
					OFFSET 2.52265 -6.93093 0.00000
					CHANNELS 3 Zrotation Yrotation Xrotation
					JOINT LeftToeBase
					{
						OFFSET 0.17633 -0.48446 2.02656
						CHANNELS 3 Zrotation Yrotation Xrotation
						End Site
						{
							OFFSET 0.00000 -0.00000 1.04989
						}
					}
				}
			}
		}
	}
	JOINT RHipJoint
	{
		OFFSET 0 0 0
		CHANNELS 3 Zrotation Yrotation Xrotation
		JOINT RightUpLeg
		{
			OFFSET -1.48599 -1.60504 1.11378
			CHANNELS 3 Zrotation Yrotation Xrotation
			JOINT RightLeg
			{
				OFFSET -2.27280 -6.24448 0.00000
				CHANNELS 3 Zrotation Yrotation Xrotation
				JOINT RightFoot
				{
					OFFSET -2.50834 -6.89161 0.00000
					CHANNELS 3 Zrotation Yrotation Xrotation
					JOINT RightToeBase
					{
						OFFSET -0.26967 -0.74090 2.08741
						CHANNELS 3 Zrotation Yrotation Xrotation
						End Site
						{
							OFFSET -0.00000 -0.00000 1.10614
						}
					}
				}
			}
		}
	}
	JOINT LowerBack
	{
		OFFSET 0 0 0
		CHANNELS 3 Zrotation Yrotation Xrotation
		JOINT Spine
		{
			OFFSET 0.06481 2.02437 -0.08472
			CHANNELS 3 Zrotation Yrotation Xrotation
			JOINT Spine1
			{
				OFFSET 0.00015 1.96711 0.18069
				CHANNELS 3 Zrotation Yrotation Xrotation
				JOINT Neck
				{
					OFFSET 0 0 0
					CHANNELS 3 Zrotation Yrotation Xrotation
					JOINT Neck1
					{
						OFFSET -0.29961 1.68293 -0.13041
						CHANNELS 3 Zrotation Yrotation Xrotation
						JOINT Head
						{
							OFFSET 0.59697 1.61501 -0.14669
							CHANNELS 3 Zrotation Yrotation Xrotation
							End Site
							{
								OFFSET 0.22973 1.74906 -0.10148
							}
						}
					}
				}
				JOINT LeftShoulder
				{
					OFFSET 0 0 0
					CHANNELS 3 Zrotation Yrotation Xrotation
					JOINT LeftArm
					{
						OFFSET 3.37968 1.02893 0.31147
						CHANNELS 3 Zrotation Yrotation Xrotation
						JOINT LeftForeArm
						{
							OFFSET 5.19807 -0.00000 -0.00000
							CHANNELS 3 Zrotation Yrotation Xrotation
							JOINT LeftHand
							{
								OFFSET 3.09370 -0.00000 -0.00000
								CHANNELS 3 Zrotation Yrotation Xrotation
								JOINT LeftFingerBase
								{
									OFFSET 0 0 0
									CHANNELS 3 Zrotation Yrotation Xrotation
									JOINT LeftHandIndex1
									{
										OFFSET 0.67263 -0.00000 -0.00000
										CHANNELS 3 Zrotation Yrotation Xrotation
										End Site
										{
											OFFSET 0.54229 -0.00000 -0.00000
										}
									}
								}
								JOINT LThumb
								{
									OFFSET 0 0 0
									CHANNELS 3 Zrotation Yrotation Xrotation
									End Site
									{
										OFFSET 0.55057 -0.00000 0.55057
									}
								}
							}
						}
					}
				}
				JOINT RightShoulder
				{
					OFFSET 0 0 0
					CHANNELS 3 Zrotation Yrotation Xrotation
					JOINT RightArm
					{
						OFFSET -3.38254 0.96355 -0.16120
						CHANNELS 3 Zrotation Yrotation Xrotation
						JOINT RightForeArm
						{
							OFFSET -5.45222 -0.00000 -0.00000
							CHANNELS 3 Zrotation Yrotation Xrotation
							JOINT RightHand
							{
								OFFSET -3.01284 -0.00000 -0.00000
								CHANNELS 3 Zrotation Yrotation Xrotation
								JOINT RightFingerBase
								{
									OFFSET 0 0 0
									CHANNELS 3 Zrotation Yrotation Xrotation
									JOINT RightHandIndex1
									{
										OFFSET -0.62230 -0.00000 -0.00000
										CHANNELS 3 Zrotation Yrotation Xrotation
										End Site
										{
											OFFSET -0.50171 -0.00000 -0.00000
										}
									}
								}
								JOINT RThumb
								{
									OFFSET 0 0 0
									CHANNELS 3 Zrotation Yrotation Xrotation
									End Site
									{
										OFFSET -0.50937 -0.00000 0.50937
									}
								}
							}
						}
					}
				}
			}
		}
	}
}
MOTION
Frames: 6
Frame Time: 0.0625
0.00 0.00 0.00 0 0 0 0 0 0 -21 0 0 0 0 0 0 0 0 0 0 0 0 0 0 21 0 0 0 0 0 0 0 0 0 0 0 0 0 0 0 0 0 0 0 0 0 0 -16 0 0 21 0 0 11 0 0 0 -8 0 0 0 0 0 0 0 0 0 0 0 0 0 0 0 0 0 0 0 0 8 0 0 0 0 0 0 0 0 0 0 0 0 0 0 0 0 0
0.00 0.00 0.00 -178.0640 -0.8048 -165.4730 0.0000 0.0000 0.0000 -21.9516 -0.6642 -14.3322 1.6121 8.0066 22.7341 1.3056 -14.6978 -21.4622 0.5400 -4.7083 -13.0784 0.0000 0.0000 0.0000 19.9910 15.0444 -46.7340 -3.8813 -12.0007 35.7344 -0.0508 10.9228 -8.4134 -1.3692 7.4056 -20.9226 -2.5647 1.1483 -0.0680 -1.2091 1.1094 -5.3649 0.1408 0.5124 -5.5447 -29.6107 -8.5428 20.6742 42.0835 -22.0034 -7.0333 20.6041 -14.5660 3.5096 0.0000 -0.0000 0.0000 -83.8274 15.2547 35.0282 14.7086 -23.7385 -3.1077 -0.0000 0.0000 -32.0319 21.3816 -10.6854 -4.1521 -7.1250 0.0000 -0.0000 -4.0106 18.5408 2.5334 0.0000 -0.0000 0.0000 92.0524 -6.4250 17.6135 -15.6373 25.0264 -3.4911 0.0000 0.0000 23.2756 -11.0651 -2.1768 0.4256 7.1250 -0.0000 -0.0000 12.4386 -32.0306 4.0310
0.00 0.00 0.00 -179.0390 -3.3210 -164.6250 0.0000 0.0000 0.0000 -21.7560 1.8929 3.0989 0.1471 2.4720 6.8120 0.2897 -14.8513 -13.4141 2.7236 -10.2336 -29.7366 0.0000 0.0000 0.0000 19.8688 17.0333 -47.3102 -2.2755 -9.4178 27.1113 0.6074 14.4574 0.2504 -0.8806 5.9823 -16.7330 -3.1672 0.6250 -2.1171 -1.3531 0.2920 -6.2438 0.3796 0.0682 -5.2966 -29.4456 -8.8113 21.2603 42.2951 -23.2157 -6.5202 20.4382 -15.3204 4.0601 0.0000 -0.0000 0.0000 -83.5586 15.1404 37.1918 15.1085 -24.2970 -3.2704 -0.0000 0.0000 -28.2373 16.2196 -10.3578 -2.9940 -7.1250 0.0000 -0.0000 -7.6593 19.2534 4.7477 0.0000 -0.0000 0.0000 91.7966 -10.0308 7.7672 -12.3045 20.2597 -2.2066 0.0000 0.0000 31.2952 -10.5609 -1.9514 0.3637 7.1250 -0.0000 -0.0000 12.8039 -31.7921 4.2301
0.00 0.00 0.00 -178.4540 -1.9718 -165.4770 0.0000 0.0000 0.0000 -19.8383 3.2193 4.2039 0.9074 6.0701 16.9880 -1.0553 -18.4976 1.6212 1.4780 -7.6817 -21.7513 0.0000 0.0000 0.0000 20.0851 22.7926 -43.3375 -4.2621 -12.5012 37.5290 0.3468 12.3024 -2.5577 -0.0959 1.9972 -5.4978 -0.8905 1.2298 -4.0974 -1.1592 1.0037 -7.0661 -0.6831 0.2511 -5.0118 -30.2532 -8.4894 20.1551 40.7099 -22.5486 -4.8703 19.7546 -14.6289 4.2196 0.0000 -0.0000 0.0000 -86.4041 16.9374 29.0387 18.2433 -28.4675 -4.6646 -0.0000 0.0000 -34.0017 17.7818 -11.7464 -3.7356 -7.1250 0.0000 -0.0000 -6.5588 17.7101 4.2810 0.0000 -0.0000 0.0000 91.6773 -11.3254 3.1240 -10.6164 17.6979 -1.6574 0.0000 0.0000 38.7853 -6.0646 -0.8327 0.0885 7.1250 -0.0000 -0.0000 16.1295 -30.5741 5.8927
0.00 0.00 0.00 -177.9980 -1.9888 -167.0070 0.0000 0.0000 0.0000 -17.7729 2.8007 -1.9059 3.1725 10.9692 32.1762 -0.2327 -14.4612 17.7190 0.0989 -2.0283 -5.5839 0.0000 0.0000 0.0000 22.7713 20.2230 -38.8271 -4.4762 -12.7685 38.5080 0.3286 14.5223 -5.8387 -0.0516 1.4654 -4.0304 1.1995 1.0636 -3.3815 -1.0361 0.7939 -7.1334 -1.7331 0.0466 -5.4566 -30.8427 -8.1497 19.0688 39.7383 -22.1974 -2.9987 19.3404 -14.2520 4.6719 -0.0000 0.0000 0.0000 -87.3414 17.2004 26.5892 19.2260 -29.6986 -5.1424 -0.0000 0.0000 -36.0965 18.7395 -12.1838 -4.0953 -7.1250 0.0000 -0.0000 -5.8965 17.1783 3.9129 -0.0000 0.0000 0.0000 91.5079 -10.7431 4.3919 -10.6607 17.7664 -1.6709 0.0000 0.0000 39.3402 -5.4865 -0.8230 0.0790 7.1250 -0.0000 -0.0000 16.5718 -30.5490 6.0773
0.00 0.00 0.00 -175.5000 -3.0214 -168.2720 0.0000 0.0000 0.0000 -13.0614 -0.1873 -11.3527 7.4610 15.7081 50.5969 0.0312 -15.6290 22.4896 0.0715 -1.7253 -4.7471 0.0000 0.0000 0.0000 27.6303 15.6001 -33.6329 -3.8370 -11.9403 35.5212 0.5253 17.5731 -6.5399 -0.0077 0.5665 -1.5568 5.1692 0.9694 -2.2655 -0.1734 0.7941 -7.2289 -3.0702 -0.1532 -6.1745 -31.3209 -8.0831 18.7384 39.0360 -22.1434 -2.1418 19.0410 -14.0971 4.8797 -0.0000 0.0000 0.0000 -87.4989 16.0647 27.7716 19.8229 -30.4284 -5.4414 -0.0000 0.0000 -36.9717 18.4303 -11.8120 -3.9024 -7.1250 0.0000 -0.0000 -6.1064 17.5915 3.9982 -0.0000 0.0000 0.0000 90.5579 -10.5612 10.4570 -12.1017 19.9569 -2.1369 0.0000 0.0000 33.1109 -5.8553 -0.9512 0.0975 7.1250 -0.0000 -0.0000 16.3102 -30.6828 5.9194
